<svg xmlns="http://www.w3.org/2000/svg" viewBox="0 0 32 32" width="512" height="512">
  <rect width="32" height="32" fill="#1c3028"/>
  <g>
    <defs>
      <clipPath id="bot"><rect x="0" y="21" width="32" height="11"/></clipPath>
    </defs>
    <path d="M16 29 C22 22 25 17 25 12 C25 7 21 3 16 3 C11 3 7 7 7 12 C7 17 10 22 16 29 Z" fill="#e8693d" clip-path="url(#bot)"/>
    <path d="M16 29 C22 22 25 17 25 12 C25 7 21 3 16 3 C11 3 7 7 7 12 C7 17 10 22 16 29 Z" stroke="#e8693d" stroke-width="1.8" stroke-linejoin="round" fill="none"/>
  </g>
</svg>
